# AST/ASF file generated using VICON BodyLanguage
# -----------------------------------------------
:version 1.10
:name VICON
:units
  mass 1.0
  length 0.45
  angle deg
:documentation
   .ast/.asf automatically generated from VICON data using
   VICON BodyBuilder and BodyLanguage model FoxedUp or BRILLIANT.MOD
:root
   order TX TY TZ RX RY RZ
   axis XYZ
   position 0 0 0  
   orientation 0 0 0 
:bonedata
  begin
     id 1 
     name lhipjoint
     direction 0.575328 -0.747301 0.332475 
     length 2.40933 
     axis 0 0 0  XYZ
  end
  begin
     id 2 
     name lfemur
     direction 0.34202 -0.939693 0  
     length 7.31453  
     axis 0 0 20  XYZ
    dof rx ry rz
    limits (-160.0 20.0)
           (-70.0 70.0)
           (-60.0 70.0)
  end
  begin
     id 3 
     name ltibia
     direction 0.34202 -0.939693 0   
     length 7.82185   
     axis 0 0 20   XYZ
    dof rx
    limits (-10.0 170.0)
  end
  begin
     id 4 
     name lfoot
     direction 0.0795993 -0.218697 0.972541   
     length 2.19173   
     axis -90 7.62852e-016 20   XYZ
    dof rx rz
    limits (-45.0 90.0)
           (-70.0 20.0)
  end
  begin
     id 5 
     name ltoes
     direction 1.53537e-011 -4.21894e-011 1   
     length 1.10023   
     axis -90 7.62852e-016 20   XYZ
    dof rx
    limits (-90.0 20.0)
  end
  begin
     id 6 
     name rhipjoint
     direction -0.513884 -0.783789 0.348708   
     length 2.29716  
     axis 0 0 0  XYZ 
  end
  begin
     id 7 
     name rfemur
     direction -0.34202 -0.939693 0   
     length 7.59573   
     axis 0 0 -20   XYZ
    dof rx ry rz
    limits (-160.0 20.0)
           (-70.0 70.0)
           (-70.0 60.0)
  end
  begin
     id 8 
     name rtibia
     direction -0.34202 -0.939693 0   
     length 7.66402   
     axis 0 0 -20   XYZ
    dof rx
    limits (-10.0 170.0)
 end
 begin
     id 9 
     name rfoot
     direction -0.137793 -0.378584 0.915253   
     length 2.27056  
     axis -90 -7.62852e-016 -20   XYZ
    dof rx rz
    limits (-45.0 90.0)
           (-20.0 70.0)
  end
  begin
     id 10 
     name rtoes
     direction -1.53493e-011 -4.22159e-011 1   
     length 1.11766   
     axis -90 -7.62852e-016 -20   XYZ
    dof rx
    limits (-90.0 20.0)
  end
  begin
     id 11 
     name lowerback
     direction -0.00732775 0.998356 -0.05685   
     length 2.16513   
     axis 0 0 0   XYZ
    dof rx ry rz
    limits (-20.0 45.0)
           (-30.0 30.0)
           (-30.0 30.0)
  end
  begin
     id 12 
     name upperback
     direction 0.0218081 0.999627 -0.0164647   
     length 2.16755   
     axis 0 0 0   XYZ
    dof rx ry rz
    limits (-20.0 45.0)
           (-30.0 30.0)
           (-30.0 30.0)
  end
  begin
     id 13 
     name thorax
     direction 0.02365 0.999661 0.0108914   
     length 2.16932   
     axis 0 0 0   XYZ
    dof rx ry rz
    limits (-20.0 45.0)
           (-30.0 30.0)
           (-30.0 30.0)
  end
  begin
     id 14 
     name lowerneck
     direction -0.0523929 0.978385 0.200044   
     length 1.63877   
     axis 0 0 0   XYZ
    dof rx ry rz
    limits (-20.0 45.0)
           (-30.0 30.0)
           (-30.0 30.0)
  end
  begin
     id 15 
     name upperneck
     direction 0.0448674 0.981321 -0.187074   
     length 1.69014   
     axis 0 0 0   XYZ
    dof rx ry rz
    limits (-20.0 45.0)
           (-30.0 30.0)
           (-30.0 30.0)
  end
  begin
     id 16
     name head
     direction 0.0199089 0.996118 -0.0857429  
     length 1.70094  
     axis 0 0 0   XYZ
    dof rx ry rz
    limits (-20.0 45.0)
           (-30.0 30.0)
           (-30.0 30.0)
  end
  begin
     id 17 
     name lclavicle
     direction 0.940366 0.30191 -0.156722  
     length 3.37521  
     axis 0 0 0   XYZ
    dof ry rz
    limits (-20.0 10.0)
           (0.0 20.0)
  end
  begin
     id 18 
     name lhumerus
     direction 1 -4.4897e-011 -1.7911e-027   
     length 5.25287   
     axis 180 -30 -90   XYZ
    dof rx ry rz
    limits (-60.0 90.0)
           (-90.0 90.0)
           (-90.0 90.0)
  end
  begin
     id 19
     name lradius
     direction 1 -4.48951e-011 1.04424e-027   
     length 3.51014   
     axis 180 -30 -90   XYZ
    dof rx
    limits (-10.0 170.0)
  end
  begin
     id 20
     name lwrist
     direction 1 -4.48997e-011 -9.5942e-028   
     length 1.75507   
     axis 8.48502e-016 90 90   XYZ
    dof ry
    limits (-180.0 0.0)
 end
  begin
     id 21 
     name lhand
     direction 1 -4.48831e-011 -1.90777e-027   
     length 0.706179   
     axis 1.22306e-015 90 90   XYZ
    dof rx rz
    limits (-90.0 90.0)
           (-45.0 45.0)
  end
  begin
     id 22 
     name lfingers
     direction 1 -4.49108e-011 -3.85244e-027   
     length 0.569339   
     axis 2.44611e-015 90 90   XYZ
    dof rx
    limits (0.0 90.0)
  end
  begin
     id 23
     name lthumb
     direction 0.707107 -6.34953e-011 0.707107   
     length 0.817461   
     axis -90 45 -1.62303e-014   XYZ
    dof rx rz
    limits (-45.0 45.0)
           (-45.0 45.0)
  end
  begin
     id 24 
     name rclavicle
     direction -0.905329 0.382405 -0.184787   
     length 3.30787  
     axis 0 0 0   XYZ 
    dof ry rz
    limits (-10.0 20.0)
           (-20.0 0.0)
  end
  begin
     id 25 
     name rhumerus
     direction -1 -4.48953e-011 -9.15316e-029  
     length 5.28721   
     axis 180 30 90   XYZ
    dof rx ry rz
    limits (-90.0 60.0)
           (-90.0 90.0)
           (-90.0 90.0)
  end
  begin
     id 26 
     name rradius
     direction -1 -4.48987e-011 9.37824e-028   
     length 3.50544   
     axis 180 30 90   XYZ
    dof rx
    limits (-10.0 170.0)
  end
  begin
     id 27 
     name rwrist
     direction -1 -4.48967e-011 -9.58414e-028   
     length 1.75272   
     axis 8.48502e-016 -90 -90   XYZ
    dof ry
    limits (-180.0 0.0)
  end
  begin
     id 28
     name rhand
     direction -1 -4.48904e-011 -1.91266e-027   
     length 0.884996   
     axis 1.22306e-015 -90 -90   XYZ
    dof rx rz
    limits (-90.0 90.0)
           (-45.0 45.0)
  end
  begin
     id 29
     name rfingers
     direction -1 -4.4909e-011 -3.85015e-027   
     length 0.713507   
     axis 2.44611e-015 -90 -90   XYZ
    dof rx
    limits (0.0 90.0)
  end
  begin
     id 30
     name rthumb
     direction -0.707107 -6.34853e-011 0.707107   
     length 1.02446   
     axis -90 -45 1.62303e-014   XYZ
    dof rx rz
    limits (-45.0 45.0)
           (-45.0 45.0)
  end
:hierarchy
  begin
    root lhipjoint rhipjoint lowerback
    lhipjoint lfemur
    lfemur ltibia
    ltibia lfoot
    lfoot ltoes
    rhipjoint rfemur
    rfemur rtibia
    rtibia rfoot
    rfoot rtoes
    lowerback upperback
    upperback thorax
    thorax lowerneck lclavicle rclavicle
    lowerneck upperneck
    upperneck head
    lclavicle lhumerus
    lhumerus lradius
    lradius lwrist
    lwrist lhand lthumb
    lhand lfingers
    rclavicle rhumerus
    rhumerus rradius
    rradius rwrist
    rwrist rhand rthumb
    rhand rfingers
  end

#!OML:ASF F:\twosubjects\two\Thursday\Session 1\justin.ASF
:FULLY-SPECIFIED
:DEGREES
51
root 21.8536 13.0937 3.12719 -173.169 -83.3267 149.931
lowerback 31.9226 1.5539 -1.19431
upperback 16.3351 -0.551724 3.48652
thorax 1.33208 -1.51993 4.40188
lowerneck -21.919 -1.70614 -10.176
upperneck 12.8534 -1.08463 10.1352
head 7.64991 -0.029382 4.93805
rclavicle -3.18055e-014 5.40694e-014
rhumerus 2.90685 28.4882 -77.2836
rradius 65.5963
rwrist 4.49998
rhand -13.6327 24.3503
rfingers 7.12502
rthumb 12.4833 -5.25688
lclavicle -3.18055e-014 5.40694e-014
lhumerus -3.58846 -20.3164 89.4178
lradius 60.9711
lwrist -24.5378
lhand -16.6807 30.557
lfingers 7.12502
lthumb 9.54345 60.3209
rfemur -47.7125 -3.09252 11.6428
rtibia 64.3653
rfoot 6.45382 -5.18642
rtoes -2.42651
lfemur -43.5751 8.46833 -10.9962
ltibia 60.178
lfoot 9.54141 -9.13627
ltoes 0.472102
52
root 21.8701 13.1108 3.12186 -172.66 -83.2816 149.673
lowerback 31.3002 1.55968 -1.28941
upperback 16.3773 -0.512934 3.33776
thorax 1.59336 -1.50008 4.56992
lowerneck -22.4969 -1.22114 -10.4525
upperneck 13.8555 -0.391855 10.4117
head 8.00294 0.320717 5.20412
rclavicle 7.95139e-015 -4.77083e-015
rhumerus 2.70739 28.4166 -77.4776
rradius 65.7117
rwrist 4.51243
rhand -13.5789 24.388
rfingers 7.12502
rthumb 12.5351 -5.21596
lclavicle 7.95139e-015 -4.77083e-015
lhumerus -3.67692 -20.2532 89.4123
lradius 61.011
lwrist -24.2853
lhand -16.715 30.7148
lfingers 7.12502
lthumb 9.51032 60.4802
rfemur -47.9098 -3.05786 11.672
rtibia 64.22
rfoot 6.53736 -5.27243
rtoes -2.64101
lfemur -43.9012 8.11204 -10.5689
ltibia 60.3723
lfoot 10.6133 -7.16346
ltoes 14.9525
53
root 21.856 13.0904 3.11848 -171.029 -83.1606 148.328
lowerback 30.9695 1.59238 -1.58429
upperback 16.3101 -0.518013 3.35499
thorax 1.65894 -1.51206 4.75355
lowerneck -24.0491 -0.893962 -11.9616
upperneck 15.8052 0.360089 11.6123
head 8.83074 0.730499 6.08448
rclavicle -7.95139e-016 1.74931e-014
rhumerus 2.39279 28.4257 -77.8511
rradius 65.8666
rwrist 4.84159
rhand -13.5611 24.3416
rfingers 7.12502
rthumb 12.5523 -5.26139
lclavicle -7.95139e-016 1.74931e-014
lhumerus -3.71115 -19.9393 89.5392
lradius 60.9825
lwrist -24.113
lhand -16.6388 30.8312
lfingers 7.12502
lthumb 9.58383 60.5933
rfemur -48.3836 -3.086 11.5296
rtibia 64.2953
rfoot 6.70324 -5.16338
rtoes -2.25576
lfemur -44.2394 8.61904 -11.1316
ltibia 60.3628
lfoot 9.90867 -8.16685
ltoes 6.67524
54
root 21.8669 13.1116 3.12345 -169.442 -83.1742 146.52
lowerback 31.3113 1.55806 -1.65421
upperback 16.3345 -0.603892 3.32541
thorax 1.55064 -1.56674 4.79442
lowerneck -25.9383 0.0279522 -13.6681
upperneck 17.9922 1.99766 13.1636
head 9.65129 1.56599 7.32893
rclavicle 1.35174e-014 6.36111e-015
rhumerus 2.34056 28.227 -78.0935
rradius 65.9186
rwrist 5.20909
rhand -13.5319 24.3549
rfingers 7.12502
rthumb 12.5805 -5.24633
lclavicle 1.35174e-014 6.36111e-015
lhumerus -3.73976 -19.9083 89.4979
lradius 61.0151
lwrist -23.9421
lhand -17.0101 31.0643
lfingers 7.12502
lthumb 9.22558 60.8425
rfemur -48.0322 -3.20003 11.2794
rtibia 64.1558
rfoot 6.77387 -5.04369
rtoes -1.93651
lfemur -43.9974 8.03778 -10.999
ltibia 60.4936
lfoot 10.5867 -6.77829
ltoes 16.6475
55
root 21.8558 13.1044 3.12929 -170.623 -83.1997 147.561
lowerback 31.8921 1.51479 -1.30569
upperback 16.2539 -0.614356 3.48008
thorax 1.25961 -1.54885 4.473
lowerneck -24.3774 0.690824 -10.3811
upperneck 16.3237 2.34928 9.97795
head 8.83792 1.58478 5.51804
rclavicle -1.82882e-014 4.6118e-014
rhumerus 2.36421 27.8322 -78.1851
rradius 65.9365
rwrist 5.22258
rhand -13.2404 24.4718
rfingers 7.12502
rthumb 12.8614 -5.1119
lclavicle -1.82882e-014 4.6118e-014
lhumerus -3.6825 -20.1151 89.3861
lradius 60.9263
lwrist -23.6507
lhand -17.5946 31.0127
lfingers 7.12502
lthumb 8.66161 60.815
rfemur -47.9112 -3.34215 11.4068
rtibia 64.2296
rfoot 6.70136 -4.86408
rtoes -2.16659
lfemur -43.8623 8.55913 -11.248
ltibia 60.3893
lfoot 10.2187 -8.20096
ltoes 8.49342
56
root 21.8619 13.1178 3.13017 -172.809 -83.1378 149.937
lowerback 31.3418 1.50009 -0.994308
upperback 16.357 -0.511607 3.35164
thorax 1.54954 -1.47793 4.41616
lowerneck -22.8659 1.16558 -7.04705
upperneck 14.7172 2.41403 7.11197
head 8.11425 1.50096 3.87982
rclavicle -4.21423e-014 -1.27222e-014
rhumerus 2.25878 27.5302 -78.3168
rradius 66.0098
rwrist 4.99522
rhand -12.7937 24.6253
rfingers 7.12502
rthumb 13.2921 -4.93081
lclavicle -4.21423e-014 -1.27222e-014
lhumerus -3.5741 -20.2645 89.2815
lradius 60.7838
lwrist -23.3614
lhand -17.6857 30.8772
lfingers 7.12502
lthumb 8.57368 60.6831
rfemur -48.029 -3.34543 11.765
rtibia 64.1088
rfoot 6.71852 -4.81233
rtoes -2.48404
lfemur -44.1148 9.06638 -10.798
ltibia 60.5595
lfoot 10.9592 -7.8839
ltoes 16.6534
